<svg id="Capa_1" data-name="Capa 1" xmlns="http://www.w3.org/2000/svg" viewBox="0 0 540 540"><defs><style>.cls-1{fill:#424242;}.cls-2{fill:#d50000;}.cls-3{fill:#fff;}</style></defs><g id="L3gLfg.tif"><path class="cls-1" d="M270.81,520.91c-131.17.68-247.73-103.37-250.18-244.63C18.14,133,130,20.2,270.26,20c139.42-.21,251.89,112.29,250.31,253.72C519,415.74,402.76,521.39,270.81,520.91Zm215.43-268c-7.2-105.78-98.52-204-223.53-199.44C137.19,58.05,59.21,161.71,55.21,252.77H185c16.46-45.55,43.49-67.88,83.24-68.94,40.8-1.09,67,19.37,88.21,69.07ZM54.77,288c7.8,108.67,102.08,205.39,225.91,199.25C411.31,480.79,483.38,371,485.57,288.08H356c-15.8,44.68-42.33,67.85-81.5,68.67-47.61,1-76-24.9-89.7-68.73ZM323.7,270.29a53.17,53.17,0,1,0-53,53.63A53.32,53.32,0,0,0,323.7,270.29Z"/><path class="cls-2" d="M486.24,252.9H356.48c-21.24-49.7-47.41-70.16-88.21-69.07-39.75,1.06-66.78,23.39-83.24,68.94H55.21c4-91.06,82-194.72,207.5-199.31C387.72,48.88,479,147.12,486.24,252.9Z"/><path class="cls-3" d="M54.77,288h130c13.72,43.83,42.09,69.73,89.7,68.73,39.17-.82,65.7-24,81.5-68.67H485.57c-2.19,83-74.26,192.71-204.89,199.19C156.85,493.41,62.57,396.69,54.77,288Z"/><path class="cls-3" d="M323.7,270.29a53.17,53.17,0,1,1-53.3-53.36A53.37,53.37,0,0,1,323.7,270.29Z"/></g></svg>